<?xml version="1.0" encoding="UTF-8" standalone="no"?>
<svg width="978px" height="422px" viewBox="0 0 978 422" version="1.1" xmlns="http://www.w3.org/2000/svg" stroke="none">
	<path id="signup_bg"  fill="blue" d="M161.005562,0 L816.994438,0 C905.915355,0 978,94.4679178 978,211 C978,327.532082 905.915355,422 816.994438,422 L161.005562,422 C72.0846454,422 0,327.532082 0,211 C0,94.4679178 72.0846454,0 161.005562,0 Z"></path>
	<g id="signup_text" transform="translate(488.500000, 211.400000) scale(1, -1) translate(-488.500000, -211.400000) translate(187.000000, 103.900000)" fill="#D8D8D8">
		<path d="M516.6,211.4 C515.8,209.3 515.8,6.6 516.6,4.5 C517.1,3.1 519.6,2.9 533.6,2.9 C548.7,2.9 550,3 551,4.8 C551.6,6.1 552,21.2 552,47.2 L552,87.6 L563.3,88.1 C572.7,88.4 575.4,88.9 580.3,91.2 C588.3,94.8 596.1,102.5 599.6,110.2 L602.5,116.4 L602.5,150.9 L602.5,185.4 L599.5,191.3 C595.7,198.9 589,205.6 581.4,209.4 L575.5,212.4 L546.4,212.7 C520.2,213 517.2,212.8 516.6,211.4 L516.6,211.4 Z M565.6,177.8 C567.4,175.8 567.5,173.9 567.5,150.4 C567.5,120.4 567.6,120.9 557.8,120.9 L552,120.9 L552,150.4 L552,179.9 L557.8,179.9 C562.5,179.9 564.1,179.5 565.6,177.8 Z M26.1,213.3 C19.8,211 15.1,207.9 10.3,202.6 C1.4,193 0,187 0,158.8 C0,135.5 0.7,130.9 5.2,125.5 C6.9,123.4 17.6,114.6 29,105.9 C47.4,91.8 49.8,89.6 50.8,86.1 C51.6,83.6 52,74.1 52,60 L52,37.8 L49.5,35.4 C46.3,32.1 41.7,32.1 38.5,35.4 C36,37.8 36,37.9 36,58.2 C36,73.9 35.7,78.9 34.7,79.7 C32.7,81.4 4.1,73.7 1.8,70.8 C0.2,69 0,66.4 0,52 C0,33.7 1.2,26.7 5.3,19.8 C8.8,13.8 15.5,7.5 21.7,4.4 C32.8,-1.1 54.8,-1.3 65.9,4.1 C71.7,6.9 79.4,14 82.7,19.6 C87.4,27.7 88,32.2 88,62.6 C88,92.3 87.3,98.6 83.6,104.1 C82.4,105.9 72,114.4 60.5,123 C46,133.8 39,139.7 37.8,142 C36.3,144.8 36,148.1 36,161.7 C36,177.7 36,178 38.5,180.4 C41.4,183.4 45.9,183.6 49.1,181 C51.3,179.2 51.5,178.2 52,166.3 C52.4,154.9 52.7,153.4 54.3,153.1 C57.7,152.4 84.4,160 86.3,162.1 C88.5,164.7 88.7,178.8 86.6,186.7 C83.8,197.2 75.6,207 65.5,211.9 C61,214.2 59.1,214.4 45.5,214.6 C33.8,214.8 29.5,214.5 26.1,213.3 Z M195.8,213 C185.1,208.7 176.7,200.8 172.8,191.1 L170.5,185.4 L170.5,108.4 C170.5,49.2 170.8,30.4 171.8,27.2 C173.8,20.6 180.5,11.5 186.3,7.5 C193.9,2.3 199.2,0.7 211,0.2 C232.5,-0.9 246.7,6.5 254.3,22.7 L257.5,29.4 L257.8,77.2 C258,112.6 257.8,125.5 256.9,126.5 C256,127.6 251.6,127.9 234.9,127.9 L214,127.9 L214,110.4 L214,92.9 L218,92.9 L222,92.9 L222,65 L222,37 L219.4,35 C215.8,32.2 211.5,32.3 208.5,35.4 L206,37.8 L206,107.7 C206,173.9 206.1,177.8 207.8,179.9 C209.2,181.6 210.7,182.2 213.9,182.2 C220.8,182.2 221.4,180.9 222,165.6 C222.5,153.3 222.6,152.4 224.5,152.1 C227.1,151.7 253.7,161.3 256.1,163.5 C257.7,164.9 258,166.7 258,173.3 C258,191.6 250.2,204.7 235.2,211.7 C230,214.2 228.3,214.4 215,214.6 C202.8,214.8 199.8,214.6 195.8,213 Z M113.2,211.7 C111.5,210 111.5,5.8 113.2,4.1 C114.9,2.4 145.1,2.4 146.8,4.1 C148.5,5.8 148.5,210 146.8,211.7 C146,212.5 140.8,212.9 130,212.9 C119.2,212.9 114,212.5 113.2,211.7 Z M282.5,211.7 C282.2,211 282.1,163.8 282.2,106.9 L282.5,3.4 L299,3.1 C313.6,2.9 315.6,3 316.7,4.6 C317.7,5.9 318,17.4 318.1,53.8 C318.1,95.3 318.3,100.9 319.5,97.4 C320.3,95.2 327.2,73.6 334.9,49.4 C343.9,21.4 349.6,4.9 350.7,4.1 C352,3.2 356,2.9 365,3.1 L377.5,3.4 L377.5,107.9 L377.5,212.4 L360.7,212.7 L344,212.9 L343,210.4 C342.4,208.8 342,189.9 341.9,163.1 C341.9,124 341.7,118.8 340.5,121.9 C339.8,123.8 334.3,140.3 328.5,158.4 C312.3,208.6 312.1,209.1 310.3,211.1 C308.9,212.7 307,212.9 295.8,212.9 C286.4,212.9 282.8,212.6 282.5,211.7 Z M406,211 C404.4,207.8 404.7,37 406.4,29.8 C408.9,19.1 416.7,9.4 426.7,4.4 C437.8,-1.1 459.8,-1.3 470.9,4.1 C480.5,8.7 488.8,18.8 491.6,29.1 C493.5,36.3 493.7,209.8 491.8,211.7 C490.1,213.4 459.9,213.4 458.2,211.7 C457.3,210.8 457,190 457,124.2 L457,37.8 L454.5,35.4 C451.3,32.1 446.7,32.1 443.5,35.4 L441,37.8 L441,123.8 C441,171.1 440.7,210.4 440.4,211.3 C439.9,212.7 437.4,212.9 423.4,212.9 C408.3,212.9 407,212.8 406,211 Z" id="Combined-Shape"></path>
	</g>
	<circle id="signup_light_1" fill="#F70000" cx="487.5" cy="51.5" r="34.5"></circle>
	<circle id="signup_light_2" fill="#F70000" cx="487.5" cy="369.5" r="34.5"></circle>
	<circle id="signup_light_3" fill="#F70000" cx="570.5" cy="52.5" r="34.5"></circle>
	<circle id="signup_light_4" fill="#F70000" cx="570.5" cy="370.5" r="34.5"></circle>
	<circle id="signup_light_5" fill="#F70000" cx="149.5" cy="51.5" r="34.5"></circle>
	<circle id="signup_light_6" fill="#F70000" cx="829.5" cy="51.5" r="34.5"></circle>
	<circle id="signup_light_7" fill="#F70000" cx="829.5" cy="369.5" r="34.5"></circle>
	<circle id="signup_light_8" fill="#F70000" cx="149.5" cy="369.5" r="34.5"></circle>
	<circle id="signup_light_9" fill="#F70000" cx="921.5" cy="211.5" r="34.5"></circle>
	<circle id="signup_light_10" fill="#F70000" cx="53.5" cy="211.5" r="34.5"></circle>
	<circle id="signup_light_11" fill="#F70000" cx="83.5" cy="120.5" r="34.5"></circle>
	<circle id="signup_light_12" fill="#F70000" cx="87.5" cy="300.5" r="34.5"></circle>
	<circle id="signup_light_13" fill="#F70000" cx="893.5" cy="120.5" r="34.5"></circle>
	<circle id="signup_light_14" fill="#F70000" cx="887.5" cy="300.5" r="34.5"></circle>
	<circle id="signup_light_15" fill="#F70000" cx="654.5" cy="52.5" r="34.5"></circle>
	<circle id="signup_light_16" fill="#F70000" cx="654.5" cy="370.5" r="34.5"></circle>
	<circle id="signup_light_17" fill="#F70000" cx="235.5" cy="51.5" r="34.5"></circle>
	<circle id="signup_light_18" fill="#F70000" cx="235.5" cy="369.5" r="34.5"></circle>
	<circle id="signup_light_19" fill="#F70000" cx="741.5" cy="52.5" r="34.5"></circle>
	<circle id="signup_light_20" fill="#F70000" cx="741.5" cy="370.5" r="34.5"></circle>
	<circle id="signup_light_21" fill="#F70000" cx="320.5" cy="52.5" r="34.5"></circle>
	<circle id="signup_light_22" fill="#F70000" cx="320.5" cy="370.5" r="34.5"></circle>
	<circle id="signup_light_23" fill="#F70000" cx="404.5" cy="52.5" r="34.5"></circle>
	<circle id="signup_light_24" fill="#F70000" cx="404.5" cy="370.5" r="34.5"></circle>
</svg>