<?xml version="1.0" encoding="UTF-8" standalone="no"?>
<svg viewBox="0 0 368 368" version="1.1" xmlns="http://www.w3.org/2000/svg" fill="#00023D">
        <path d="M31.4657868,215.31355 L0,183.847763 L30.2116604,153.636103 L14,114.497692 L54,97.9291499 L54,54 L96.6406915,54 L112.397714,15 L152.603551,31.2442124 L183.847763,0 L215.0626,31.2148367 L254.208678,15 L270.363007,54 L314,54 L314,96.4526106 L353.465516,112.397714 L336.99973,153.151967 L367.695526,183.847763 L336.902571,214.640718 L353.706371,255.208678 L314,271.655596 L314,314 L272.012906,314 L256.067802,353.465516 L214.765134,336.778155 L183.847763,367.695526 L154.057985,337.905748 L113.497692,354.706371 L96.6365615,314 L54,314 L54,271.824825 L15,256.067802 L31.4657868,215.31355 Z"></path>
</svg>